<svg viewBox="0 0 532 495" xmlns="http://www.w3.org/2000/svg" fill-rule="evenodd" clip-rule="evenodd" stroke-linecap="round" stroke-linejoin="round" stroke-miterlimit="1.5"><path d="M403.035 198.714c1.493 2.548 3.366 4.67 7.964 3.802 6.66-5.876 11.733-6.836 14.032 1.021.948 6.734-.545 13.599-5.428 20.646l3.792 1.96c28.68-56.342 41.054-143.726 76.773-145.279 36.1 6.618 45.13 50.696-11.898 150.794-20.788 31.364-50.724 61.957-87.274 82.517 46.055 64.23 68.003 121.647 19.247 159.083-37.284 24.859-70.089 31.472-89.573-16.372-28.988-48.498-61.508-82.068-95.308-110.234-9.41 3.14-16.592-1.851-22.257-12.406-12.8-4.624-26.737-21.16-42.262-54.739-23.537 13.283-40.91 21.19-50.795 13.703-51.506 34.698-92.511 22.958-117.968-39.97 28.372 19.234 40.626 16.916 38.02-5.255 14.458 17.518 30.647 30.308 53.425 25.393-5.594-18.695 19.152-67.572 37.047-87.606-21.119-54.879-40.437-100.279-37.166-115.82 6.66-63.085 62.339-91.218 113.252-44.874 27.519 21.763 43.47 47.118 46.86 82.7.474 5.033-6.257 16.147-10.903 20.577-1.375-.339-1.422-.375-3.01-1.266 3.46-4.574 8.177-10.974 7.798-14.797-10.998-1.567-28.443-10.83-39.915-17.638l10.192-7.658-2.56-1.119c-31.714 10.157-55.37 39.589-50.06 145.367-15.312.426-18.085 42.446-.119 42.344l7.206-2.849c-14.577 2.492-17.896-19.635-10.666-31.489 13.534-8.115 23.94-23.593 30.055-49.071 4.645 13.081 10.05 25.115 17.824 33.864l4.361-4.016c-48.946-70.477 1.233-126.956 65.467-61.823l1.968-3.885c-17.825-16.092-25.433-29.792-22.21-40.966 11.875 12.99 14.174 3.53 11.923-14.323l9.125 8.339 3.769-12.435c2.015 19.503 9.718 34.14 23.845 43.265.118-29.503 17.919-31.094 62.693 20.296l30.174 37.232-9.22 17.156-2.205-1.5 8.201-15.478c-27.092-32.387-41.503-41.783-57.597-45.84l46.386 59.353 1.47 8.287c-8.652 1.08-14.032 4.901-17.612 10.251-4.953 10.868-9.931 13.67-14.885 12.807-55.298-67.963-99.599-86.283-120.528-76.513-16.142 19.676-3.484 57.119 38.327 112.536 13.131 15.22 44.23 38.443 80.352-32.634 2.774 1.432 4.717 2.223 6.922 3.816-2.442 25.528-23.798 43.293-53.9 60.819-11.473 4.634-30.127 2.09-66.084 2.813-18.843 8.917-17.184 19.157-8.533 29.85l21.238-7.915c41.575 33.964 77.532 83.308 110.74 140.204 16.947 8.355 38.54-6.22 66.13-50.51 4.716-38.21-16.64-73.161-41.646-111.695 98.224-62.262 119.296-129.511 126.857-193.502-8.486-31.86-21.546-20.924-36.384 6.436-39.939 127.098-82.96 176.786-112.659 196.166-50.084 25.075-84.287 23.148-101.068 9.32" fill="none" stroke="#fff" stroke-opacity=".443" stroke-width="4.1716752"/></svg>
