<svg viewBox="0 0 665 465" xmlns="http://www.w3.org/2000/svg" fill-rule="evenodd" clip-rule="evenodd" stroke-linecap="round" stroke-linejoin="round" stroke-miterlimit="1.5"><path d="M198.291 243.143c-16.052-46.698-5.638-104.203 20.703-117.4 17.837 1.506 9.295 36.244 1.55 69.974l3.528-.043c7.657-36.538 19.212-79.003 38.2-84.805 31.988 3.016 20.765 68.717 21.051 102.052.165 19.307-7.541 36.537-26.554 47.352-4.714-.644-32.742-.004-60.236-13.124-15.531-21.593-15.14-81.7 6.911-134.48 10.012-14.992 25.39-17.762 33.152-6.112l1.888-2.5c-10.883-16.316-22.568-27.45-33.688-33.971-11.263-7.737-24.903-9.225-41.09-11.028l-1.38-3.628c20.296-.666 41.15 7.596 48.416 12.035 8.544 6.41 16.288 13.685 22.716 22.392l2.875-3.063c-5.65-14.075-22.228-33.545-48.41-55.407-6.088-6.242-25.94-16.167-60.57-23.98l-4.183-5.325c31.517 5.697 58.397 16.662 67.477 25.037 36.07 32.179 50.11 52.687 53.52 68.466l3.835-1.22c-4.616-33.514-11.964-60.553-26.142-71.41l2.524-1.23c14.531 9.202 23.85 35.548 29.173 75.035 15.422-6.853 28.91-6.876 39.116 4.685 27.624-17.026 47.397-10.51 70.435 21.337 4.535 19.465 2.263 34.99-6.893 46.529 7.599 11.91 7.031 45.677.913 52.37 20.365 19.203 87.7 32.137 149.972 38.413 56.318-.518 70.168-6.199 122.577-4.268 45.6 3.728 34.675 20.67 18.617 38.812-18.83 17.22-47.777 17.531-77.136 17.155-62.118.333-132.562-35.35-202.567-69.137l-12.392-10.059c-8.531 8.754-13.085 15.305-14.542 20.144-4.126 22.254-.933 34.454 2.73 49.114 53.613 39.082 60.71 57.126 57.41 70.47-.486 23.942-14.656 39.614-32.782 52.9-2.528-14.691-5.747-32.193-7.667-33.103l-3.931 1.48c2.353 4.475 12.317 35.864-4.509 55.336-15.075 15.622-31.634 15.574-48.907 10.64-35.182-8.843-60.788-47.176-83.515-98.733l10.22-10.77c19.354 59.874 52.934 90.285 73.58 95.727 40.709 3.438 46.64-23.77 32.151-61.416-25.846-52.335-39.333-91.794-40.418-131.333-1.337-.356-2.161-.186-4.087.539 6.265 32.822-63.059 102.11-87.57 108.078 2.122 12.834 2.944 24.744.518 34.35-10.682 6.072-24.803 8.311-37.925 2.857-10.51-7.333-15.664-21.664-17.71-33.703 16.767 1.41 32.215.748 47.128-.757l-.737-3.79c-48.315 5.612-80.363-6.122-90.486-11.57-2.8-1.508-11.588.754-10.503 7.782 4.388 9.964 7.266 19.862 5.103 29.544-10.407 9.822-21.948 5.212-33.62-1.079-14.138-17.819-10.983-27.948-13.091-35.625 7.836 3.081 20.871 3.347 36.218 2.128l-.474-3.88c-19.488 2.088-37.948-1.44-56.323-5.417-23.942-20.928-27.602-40.993-7.569-60.045a282.486 282.486 0 0 0 1.007-41.068C1.27 209.965-7.191 182.782 14.634 163.563 43 138.856 63.523 161.66 80.477 206.057c1.439 31.775-10.038 53.718-46.798 40.934l.206 5.384c16.764 6.516 30.654 2.202 38.38-4.179 8.99-10.229 12.858-24.911 12.434-35.682 24.058 5.892 45.283 20.108 65.267 37.975 7.658-5.15 22.164-2.211 41.186 6.06" fill="none" stroke="#fff" stroke-opacity=".443" stroke-width="4.1518188"/></svg>
