<svg viewBox="0 0 539 471" xmlns="http://www.w3.org/2000/svg" fill-rule="evenodd" clip-rule="evenodd" stroke-linecap="round" stroke-linejoin="round" stroke-miterlimit="1.5"><path d="M31.067 332.528c8.05 5.242 14.803 8.087 27.056 2.97 11.218-6.055 16.442-17.294 14.266-42.77 14.942-5.34 33.592-2.087 45.23 8.993 1.061 1.011 2.062-1.703 2.64-2.79l-14.379-9.912 35.953 14.06c9.047 1.243 10.235 3.063 18.56-9.732 22.23-41.287 18.998-73.396 5.468-86.287-9.87-3.127-17.076 6.34-23.26 20.64-12.978 25.73-13.48 48.062-7.853 68.722l-26.313-11.392c3.67-5.06 7.186-11.477 10.22-22.147 2.113-17.872.888-31.323-6.77-34.184-4.634.665-7.896 4.793-11.067 12.098-7.113 16.714-11.587 32.712-4.392 45.543-9.075-.754-17.508-.182-25.043 2.235-1.882-13.744-6.138-28.326-14.07-40.23-7.008-13.09-47.802-13.959-54.066 8.857-2.68 27.273-2.888 53.828 23.849 72.28-10.696 25.869 36.408 83.384 80.706 91.542 78.447 9.468 143.426-15.97 171.04-76.025-20.294 47.126-32.34 82.156-35.716 97.006-26.23 22.89-57.166 15.496-84.412-16.343-7.129 2.656-15.402 3.493-28.202 1.015-1.997 7.685 8.798 13.057 27.73 16.15 33.915 24.379 64.856 42.042 99.839 2.75 38.17 7.625 118.37-73.245 119.567-118.3 22.916 38.972 65.662 65.136 121.716 25.986 51.992-41.932 48.16-131.617-.26-155.179-52.798-25.024-92.556-.67-124.004 54.841-9.814-32.121-27.452-60.712-59.431-82.837 67.109-11.494 106.915-47.94 79.989-109.368C365.683-.52 291.453-10.69 248.377 15.862c-32.056 20.066-56.654 67.561-3.564 127.166-99.117-1.17-145.48 49.753-165.182 135.4l5.165.644c7.77-40.82 22.436-75.896 52.271-98.33 3.566 3.604 5.19 8.652 5.422 14.736 19.783-31.4 45.439-45.975 78.612-39.005 39.826 20.691 41.702 72.15 6.076 154.012 35.751-16.51 68.667-22.49 111.723 14.43 13.215 15.56 15.004 34.901 9.733 56.776" fill="none" stroke="#fff" stroke-opacity=".443" stroke-width="4.1636388"/></svg>
