<svg viewBox="0 0 486 510" xmlns="http://www.w3.org/2000/svg" fill-rule="evenodd" clip-rule="evenodd" stroke-linecap="round" stroke-linejoin="round" stroke-miterlimit="1.5"><path d="M1518.01 567.524c-.71 25.492-2.49 32.173 14.12 53.448 1.22-.011 9.45 4.778 9.45 4.778-14.09-24.738-19.91-41.577-15.23-61.878-19.68-8.679-24.4-24.452-30.62-35.088 9.06 9.223 32.11 28.976 32.11 28.976-18.05-20.925-27.46-41.935-27.42-52.096 8.43 16.585 32.12 48.713 32.89 48.621-11.37-20.842-13.87-35.344-13.7-47.468 4.83 16.45 11.44 29.946 19.75 44.533 7.7 8.689 16.02 41.668 16.02 41.668s7.84 23.704 7.32 32.908c3.57 2.013 7.78 2.806 11.02 3.963l12.76-2.896c-18.6-26.301-32.4-46.799-24.14-86.343-22.3-9.496-27.27-23.319-30.62-31.061 8.56 8.178 16.07 18.557 32.24 25.447l3.36-2.871c-16.87-13.322-29.9-33.405-33.08-44.004 11.87 16.08 25.31 29.901 40.49 41.198 0 0-9.9-22.799-11.93-41.463 5.71 18.399 9.88 23.105 19.01 40.015 6.98 7.252 12.19 21.69 17.8 45.55 6.63 39.41.9 58.852-7.75 58.794l-18.47 3.643c-13.15-3.672-23.57-7.206-35.39-4.668l-13.48-9.417c-21.59-11.511-36.48-12.52-44.5-2.777-10.51 10.428-9.19 22.168.78 34.868 5.07 8.1 15.95 15.645 34.89 22.415 22.59 1.711 34.95-6.954 35.28-27.85-1.96-7.067-3.71-7.65-8.82-12.458l6.15 1.84c4.2 3.744 5.58 4.064 9.04 13.003-.35 17.03-6.2 29.786-37.59 31.527 31.84 34.604 72.64 33.23 125.68 12.139 31.6-17.975 46.83-46.743 49.9-83.536 16.25 44.752 12.31 65.862-1.27 75.706-13.36 8.168-22.67 10.2-35 6.621-3.58 4.012-9.96 7.033-17.33 9.699 6.97.291 9.55.568 18.35-2.623 42.37 12.304 55.97-13.568 64.49-52.573 36.07-31.213 35.87-66.375 40.33-101.029 33.95 24.252 83.7 7.65 97.22-31.26 25.75-74.112-9.98-116.518-54.22-121.719-51.75-6.083-69.87 42.453-71.87 84.797-6.14-9.27-7.86-17.418-18.39-24.063 2.82-12.305 3.74-27.688-1.08-47.559 19.11-30.881 12.59-59.435-11.87-85.121-6.92-6.457-13.47-8.958-19.56-9.678 1.26-53.781-4.47-83.756-17.47-88.929-21.41-9.139-40.2 15.253-58.81 41.917-17.69 29.285-29.11 61.997-33.12 94.514-22.37-40.774-50.28-59.453-81.38-69.698-40.39-.292-44.33 22.592-27.36 58.768 6.5 15.066 13.83 29.789 25.29 42.78-6.34 37.859-1.28 66.693 6.82 93.116 5.05 11.016 21.08 17.876 36.79 18.226-4.66-4.787-9.5-22.997-7.4-23.103 3.54-.909 10.13 5.101 11.24 6.256 9.33-11.516 15.34-18.345 29.51-26.911 6.59.531 9.69.732 14.88-1.414 8.39-2.601 19.68-7.096 25.16-11.263 36.17 21.406 59.9 31.846 87.5 25.292 4.64-1.815 7.45-8.401 7.64-13.651 2.48-21.148-.5-36.666-2.93-57.328-2.4-27.395-7.98-54.727-16.5-81.667l6.04 3.309c9.44 26.481 12.58 51.238 17.85 77.902 3.59 20.433 4.29 35.711 3.47 57.205-.12 9.612-5.42 13.062-12.54 19.036-5.76 4.83-45.46 6.65-89.66-22.831-4.13 3.155-11.29 5.672-22.61 9.106-2.35.69-7.95 2.881-15.49 2.513-1.56-3.071-27.05 19.695-28.5 26.328 2.77 2.874 14.01 16.602 14.01 16.602s1.24-2.519 3.23-5.179c-4.32-7.646-2.78-23.723-.55-22.875 4.43 2.6 6.8 4.607 8.44 9.146 5.86-11.744 9.85-15.861 13.39-17.653 13.65-6.628 33.91-.34 44.07 9.431 16.28 20.488 22.38 47.686 22.52 84.83.58 15.371-.73 31.055-2.47 46.81 15.94-28.085 34.35-55.44 70.37-51.984 25.82 8.773 42.75 42.689 8.19 80.73" fill="none" stroke="#fff" stroke-opacity=".443" stroke-width="3.78" transform="matrix(-1.16356 0 0 1.03487 2178.835 -226.924)"/></svg>
