<svg viewBox="0 0 546 464" xmlns="http://www.w3.org/2000/svg" fill-rule="evenodd" clip-rule="evenodd" stroke-linecap="round" stroke-linejoin="round" stroke-miterlimit="1.5"><path d="M373.8 171.043l10.15-.58c9.228-8.875 21.553-15.015 32.242-11.121 25.741-18.442 42.436-27.11 52.192-22.991 23.392-47.106 35.868-52.592 46.675-51.73 24.51 2.153 33.365 16.307 26.058 42.837-16.83 34.13-35.211 49.108-54.129 57.496-20.456.356-29.05-14.192-20.16-45.196l-2.563-.618c-9.962 24.676-.972 52.61 22.868 48.454 16.51-4.793 23.154-12.993 31.545-21.868-.917 67.831-40.963 97.394-84.423 99.379-14.52 10.203-27.29 15.951-46.791 19.115-90.493-2.228-120.196-37.95-133.026-82.977 9.65 45.589 48.989 131.562 76.962 164.326l2.583.019c-2.797-7.882-14.691-18.367-29.12-46.862 41.655-13.424 58.968 11.327 68.625 43.604 1.067-9.736-.63-19.265-5.87-28.514 4.434-.861 8.822-1.629 12.419-.787-1.51-16.325-5.044-32.97-10.153-45.345 6.062 1.573 12.486 2.003 18.877.524 8.903 16.176 9.382 37.014 7.326 57.01-8.243-6.684-11.364-7.864-12.74-7.152 46.76 48.959 13.113 121.564-17.526 123.624-32.766-1.498-36.966-40.197-31.592-91.347l-3.106-.43c-2.277 14.566-.755 18.76-1.552 18.984-7.776 1.348-13.754-3.09-21.29-9.83-33.397-1.328-49.689-31.078-58.013-74.065-6.296-39.074-22.48-61.709-40.277-81.686-16.82-15.895-29.256-26.548-41.313-43.604-1.326-1.217 17.236-20.576 22.98-21.512-.646-.43 8.885 1.123 10.655-1.199.557-.711 7.58-10.035 6.25-8.874-8.443 7.414-17.168 9.137-11.794.861-72.334 52.067-90.454 97.806-112.058 138.602C50.53 381.22 30.22 405.953 14.203 409.342-9.32 393.072 3.92 344.207 32.298 281.936c33.938-56.13 82.02-104.284 158.637-136.355-11.249 1.535-8.375-5.467 3.817-18.123-10.853 4.118-15.852 10.503-16.232 18.703-12.233 4.606-11.224 6.347-19.642 10.915-4.117-16.4-5.478-26.754-5.3-33.719-1.352-.168-14.493-6.459-14.512-46.544-.013-28.533 39.692-64.18 75.63-38.38 12.564-31.623 31.206-40.61 57.247-22.074 16.813-28.514 33.824-12.788 50.975 33.55 17.364 26.867 25.094 60.549 23.304 100.97.004 7.62-.586 13.761-1.795 18.367-6.589 1.61-13.432 1.741-20.591-.019-.157-52.142-10.273-89.137-27.387-116.51 7.887-29.262 15.53-1.553 23.59-2.302-14.394-20.014-20.063-21.362-25.363-1.46-10.236-7.49-18.711-9.867-24.023-12.226-7.985-3.539-17.092-3.557-19.68.561-12.459 19.809-8.656 45.14-4.315 76.575 3.015 22.28 9.914 45.233 17.51 56.879 5.635 8.65 18.357 12.094 28.072 13.068 13.154-6.647 24.884-12.15 27.393-10.335 12.008 1.648 18.61 1.592 28.542-.224 1.406-6.815.12-14.997 3.965-22.074 13.892 4.38 12.265 9.455 16.5 14.266" fill="none" stroke="#fff" stroke-opacity=".443" stroke-width="4.1750951999999995"/></svg>
